Coordinates
version=1
nRows=18
nColumns=38
inDegrees=yes

Units are S.I. units (second, meters, Newtons, ...)
Angles are in degrees.

endheader
time	pelvis_tilt	pelvis_list	pelvis_rotation	pelvis_tx	pelvis_ty	pelvis_tz	hip_flexion_r	hip_adduction_r	hip_rotation_r	knee_angle_r	ankle_angle_r	subtalar_angle_r	mtp_angle_r	hip_flexion_l	hip_adduction_l	hip_rotation_l	knee_angle_l	ankle_angle_l	subtalar_angle_l	mtp_angle_l	lumbar_extension	lumbar_bending	lumbar_rotation	arm_flex_r	arm_add_r	arm_rot_r	elbow_flex_r	pro_sup_r	wrist_flex_r	wrist_dev_r	arm_flex_l	arm_add_l	arm_rot_l	elbow_flex_l	pro_sup_l	wrist_flex_l	wrist_dev_l
      4.14000000	      1.43978358	     -1.64806779	      3.49715441	      0.37447705	      0.92005592	     -0.20753045	     -4.18081541	      7.46846217	     -5.66628453	    -13.75588896	     10.84712996	      0.86186471	      0.77264202	     26.25830717	      1.19270144	      4.56360498	    -41.74826002	     -0.51703261	     -8.58716189	      9.76958904	     -7.66014821	      3.74281552	      2.39781021	     -0.81148602	    -21.86530350	     10.51021569	     35.90108427	     86.51662706	      0.00000000	      0.00000000	     -5.86360174	    -13.93877162	     17.37328236	     19.75399345	     86.51662706	      0.00000000	      0.00000000
      4.15000000	      1.61958823	     -1.63280005	      3.18676887	      0.38641431	      0.91868096	     -0.20713500	     -5.45221617	      7.47032978	     -5.66254340	    -13.32892865	     11.38774545	      1.50196246	      0.80675185	     26.30422776	      1.11598350	      4.39477790	    -38.24304214	     -0.46009829	     -9.43161688	      9.08428049	     -7.98562613	      3.70093376	      2.77341398	     -0.27707093	    -22.18569260	     10.62117418	     36.59751402	     86.51662706	      0.00000000	      0.00000000	     -5.89340157	    -13.83870551	     17.26953080	     19.51379805	     86.51662706	      0.00000000	      0.00000000
      4.16000000	      1.79093334	     -1.64677143	      2.88697907	      0.39844779	      0.91715958	     -0.20679860	     -6.68489854	      7.49473318	     -5.61190588	    -12.96416105	     11.89651741	      2.03785829	      0.88359050	     26.28252392	      1.00710668	      4.27473021	    -34.66808627	     -0.33423227	    -10.07404717	      8.51261699	     -8.28751388	      3.69208593	      3.11875847	      0.25027402	    -22.49828290	     10.75884261	     37.23912741	     86.51662706	      0.00000000	      0.00000000	     -5.89819812	    -13.72126243	     17.26556449	     19.19522138	     86.51662706	      0.00000000	      0.00000000
      4.17000000	      1.93939256	     -1.68819540	      2.59594422	      0.41058726	      0.91551212	     -0.20652218	     -7.86135655	      7.54154130	     -5.51798009	    -12.66844429	     12.37129737	      2.46445516	      1.00217536	     26.21845403	      0.86278489	      4.18561822	    -31.07929370	     -0.11583153	    -10.42302507	      8.05571070	     -8.54726606	      3.71400639	      3.43648879	      0.76031944	    -22.79989323	     10.91369047	     37.82682272	     86.51662706	      0.00000000	      0.00000000	     -5.88005126	    -13.58958685	     17.36492593	     18.79851054	     86.51662706	      0.00000000	      0.00000000
      4.18000000	      2.05058960	     -1.75652108	      2.31244915	      0.42284612	      0.91373700	     -0.20630048	     -8.96687689	      7.60977819	     -5.39255493	    -12.44838975	     12.81122489	      2.79015161	      1.16005345	     26.13742951	      0.68217793	      4.10068545	    -27.54037262	      0.19683521	    -10.40015545	      7.70846723	     -8.74755489	      3.76578601	      3.72791424	      1.24290352	    -23.08807750	     11.07453216	     38.36231557	     86.51662706	      0.00000000	      0.00000000	     -5.84097193	    -13.44561566	     17.56982821	     18.32499745	     86.51662706	      0.00000000	      0.00000000
      4.19000000	      2.11376424	     -1.85142019	      2.03663100	      0.43522947	      0.91182188	     -0.20613229	     -9.98964335	      7.69582291	     -5.25184244	    -12.31149808	     13.21512976	      3.03557495	      1.35366397	     26.06493756	      0.46890434	      3.98655259	    -24.12259044	      0.58676722	     -9.95373372	      7.46049923	     -8.87513009	      3.84736918	      3.99324947	      1.68862740	    -23.36132097	     11.22914993	     38.84820566	     86.51662706	      0.00000000	      0.00000000	     -5.78255350	    -13.29015098	     17.88038386	     17.77786635	     86.51662706	      0.00000000	      0.00000000
      4.20000000	      2.12434648	     -1.97113995	      1.77036928	      0.44773152	      0.90976610	     -0.20603456	    -10.92046174	      7.79274834	     -5.11275741	    -12.26698265	     13.57999501	      3.23072068	      1.57907708	     26.02502209	      0.23278194	      3.80879785	    -20.90411058	      1.02598578	     -9.07026684	      7.29764323	     -8.92376194	      3.95788325	      4.23225774	      2.08918293	    -23.61873227	     11.36510021	     39.28796619	     86.51662706	      0.00000000	      0.00000000	     -5.70544220	    -13.12349643	     18.29376075	     17.16295466	     86.51662706	      0.00000000	      0.00000000
      4.21000000	      2.08442240	     -2.11107318	      1.51673015	      0.46034998	      0.90759787	     -0.20603949	    -11.75314866	      7.89036129	     -4.98989533	    -12.32568088	     13.89993474	      3.41102724	      1.83317095	     26.03727286	     -0.00989497	      3.54043252	    -17.96855686	      1.48478096	     -7.78164715	      7.20381774	     -8.89621291	      4.09323290	      4.44524163	      2.43717354	    -23.85935734	     11.47064029	     39.68577460	     86.51662706	      0.00000000	      0.00000000	     -5.60915884	    -12.94634756	     18.80349579	     16.48932563	     86.51662706	      0.00000000	      0.00000000
      4.22000000	      2.00185240	     -2.26269408	      1.27821303	      0.47309050	      0.90537009	     -0.20617806	    -12.48605271	      7.97532388	     -4.89350929	    -12.49882547	     14.16597458	      3.61297996	      2.11519630	     26.11383301	     -0.23840590	      3.17141287	    -15.40193693	      1.93889677	     -6.16627336	      7.16281885	     -8.80415727	      4.24385539	      4.63417307	      2.72550181	    -24.08141797	     11.53566227	     40.04611772	     86.51662706	      0.00000000	      0.00000000	     -5.49283067	    -12.76053603	     19.39920537	     15.76939589	     86.51662706	      0.00000000	      0.00000000
      4.23000000	      1.88913581	     -2.41313865	      1.05435836	      0.48595314	      0.90314324	     -0.20645655	    -13.12408979	      8.03124416	     -4.82861381	    -12.79584721	     14.36674784	      3.86972899	      2.42859813	     26.25785176	     -0.43134239	      2.71585777	    -13.28699467	      2.37190429	     -4.34327893	      7.15965365	     -8.66546569	      4.39377207	      4.80347081	      2.94659336	    -24.28180592	     11.55249620	     40.37315219	     86.51662706	      0.00000000	      0.00000000	     -5.35689709	    -12.56926205	     20.06683205	     15.01851764	     86.51662706	      0.00000000	      0.00000000
      4.24000000	      1.76190677	     -2.54605243	      0.84015516	      0.49893403	      0.90098108	     -0.20683857	    -13.67965052	      8.03911218	     -4.79518655	    -13.22185708	     14.48993605	      4.20708774	      2.78286992	     26.46316851	     -0.57026659	      2.21343067	    -11.69460176	      2.77176590	     -2.46011366	      7.18116014	     -8.49919117	      4.52197662	      4.95977812	      3.09185782	    -24.45604180	     11.51645398	     40.66986224	     86.51662706	      0.00000000	      0.00000000	     -5.20517326	    -12.37681463	     20.78940563	     14.25405782	     86.51662706	      0.00000000	      0.00000000
      4.25000000	      1.63623766	     -2.64386994	      0.62676833	      0.51204774	      0.89895658	     -0.20725751	    -14.17061220	      7.97886408	     -4.78925792	    -13.77569628	     14.52391763	      4.64022458	      3.19508902	     26.71403128	     -0.64167219	      1.72300233	    -10.67272265	      3.12288881	     -0.67492268	      7.21592343	     -8.31957330	      4.60624670	      5.11038590	      3.15181176	    -24.59870319	     11.42603034	     40.93711013	     86.51662706	      0.00000000	      0.00000000	     -5.04634817	    -12.18824771	     21.54817248	     13.49413424	     86.51662706	      0.00000000	      0.00000000
      4.26000000	      1.52463805	     -2.69101911	      0.40493902	      0.52534361	      0.89713135	     -0.20766750	    -14.61521451	      7.83257335	     -4.80461922	    -14.44933196	     14.45884839	      5.17135271	      3.69068313	     26.98492803	     -0.63672322	      1.30970299	    -10.23470049	      3.39704906	      0.86364207	      7.25376867	     -8.13112425	      4.62788145	      5.26058611	      3.11717395	    -24.70416224	     11.28274700	     41.17272955	     86.51662706	      0.00000000	      0.00000000	     -4.89415377	    -12.00937286	     22.32387333	     12.75621902	     86.51662706	      0.00000000	      0.00000000
      4.27000000	      1.43164726	     -2.67696276	      0.16985156	      0.53890708	      0.89551773	     -0.20807995	    -15.02589268	      7.58861580	     -4.83483331	    -15.22924868	     14.28640631	      5.78872248	      4.30296552	     27.24264537	     -0.54937770	      1.02933261	    -10.35010144	      3.54761205	      2.03563367	      7.28527462	     -7.92689951	      4.57509382	      5.41072458	      2.98092507	    -24.76732871	     11.09069013	     41.37086293	     86.51662706	      0.00000000	      0.00000000	     -4.76576924	    -11.84682149	     23.09790564	     12.05582588	     86.51662706	      0.00000000	      0.00000000
      4.28000000	      1.35080276	     -2.59741452	     -0.07481760	      0.55283740	      0.89406903	     -0.20852557	    -15.40522363	      7.24527603	     -4.87507190	    -16.10012586	     13.99772602	      6.46716272	      5.07108229	     27.45289585	     -0.37398792	      0.91533366	    -10.94247323	      3.51097897	      2.76428861	      7.30173600	     -7.69100105	      4.44351246	      5.55391595	      2.74084429	    -24.78403323	     10.85583009	     41.52174177	     86.51662706	      0.00000000	      0.00000000	     -4.67855366	    -11.70764114	     23.85314540	     11.40548145	     86.51662706	      0.00000000	      0.00000000
      4.29000000	      1.26589487	     -2.45320611	     -0.31613091	      0.56718464	      0.89269437	     -0.20900586	    -15.74584681	      6.81160437	     -4.92318517	    -17.05005217	     13.57965069	      7.17025593	      6.03623707	     27.59180318	     -0.10347634	      0.97255115	    -11.89765588	      3.21711236	      3.02286739	      7.29580683	     -7.40456767	      4.23374644	      5.67536284	      2.40164026	    -24.75087359	     10.58524059	     41.61205318	     86.51662706	      0.00000000	      0.00000000	     -4.64598482	    -11.59832458	     24.57434920	     10.81412399	     86.51662706	      0.00000000	      0.00000000
      4.30000000	      1.15879942	     -2.24778208	     -0.53476856	      0.58190292	      0.89128515	     -0.20950779	    -16.03348468	      6.30348897	     -4.97963970	    -18.07545575	     13.01017044	      7.85397865	      7.23636401	     27.65899279	      0.27053029	      1.17947147	    -13.08319670	      2.60782273	      2.83283208	      7.26273658	     -7.05297799	      3.94735838	      5.75386254	      1.97574079	    -24.66470776	     10.28636310	     41.62596311	     86.51662706	      0.00000000	      0.00000000	     -4.67414166	    -11.52373419	     25.24819799	     10.28699539	     86.51662706	      0.00000000	      0.00000000
      4.31000000	      1.02079496	     -1.98338354	     -0.70933567	      0.59689918	      0.88977066	     -0.21003276	    -16.25024139	      5.73618019	     -5.04663983	    -19.18382250	     12.25452695	      8.47132696	      8.69975852	     27.68418920	      0.75447541	      1.49756222	    -14.37552779	      1.65819120	      2.25463340	      7.20174623	     -6.63144301	      3.58326922	      5.76554784	      1.48217681	    -24.52221078	      9.96645875	     41.54677572	     86.51662706	      0.00000000	      0.00000000	     -4.75988760	    -11.48643118	     25.86310413	      9.82603693	     86.51662706	      0.00000000	      0.00000000
